<?xml version="1.0" encoding="UTF-8" standalone="no"?>
<svg
   width="7.25556in"
   height="7.43333in"
   viewBox="0 0 653 669"
   version="1.1"
   id="svg10"
   sodipodi:docname="logo.svg"
   inkscape:version="1.2 (dc2aedaf03, 2022-05-15)"
   xmlns:inkscape="http://www.inkscape.org/namespaces/inkscape"
   xmlns:sodipodi="http://sodipodi.sourceforge.net/DTD/sodipodi-0.dtd"
   xmlns="http://www.w3.org/2000/svg"
   xmlns:svg="http://www.w3.org/2000/svg">
  <defs
     id="defs14" />
  <sodipodi:namedview
     id="namedview12"
     pagecolor="#ffffff"
     bordercolor="#000000"
     borderopacity="0.25"
     inkscape:showpageshadow="2"
     inkscape:pageopacity="0.0"
     inkscape:pagecheckerboard="0"
     inkscape:deskcolor="#d1d1d1"
     inkscape:document-units="in"
     showgrid="false"
     inkscape:zoom="1.4391822"
     inkscape:cx="293.91691"
     inkscape:cy="356.45242"
     inkscape:window-width="2560"
     inkscape:window-height="1377"
     inkscape:window-x="-8"
     inkscape:window-y="-8"
     inkscape:window-maximized="1"
     inkscape:current-layer="svg10" />
  <path
     id="one"
     fill="#ff5135"
     stroke="black"
     stroke-width="0"
     d="M 342.00,391.00            C 342.00,391.00 319.00,406.57 319.00,406.57              302.42,416.06 278.20,423.97 259.00,424.00              242.58,424.03 234.19,424.11 218.00,419.28              195.21,412.49 176.77,400.76 160.00,384.00              120.74,344.76 103.36,290.76 104.00,236.00              104.00,236.00 104.91,226.00 104.91,226.00              108.16,178.73 125.17,135.43 157.17,100.00              179.62,75.14 207.12,55.65 237.00,40.75              259.74,29.41 288.07,19.62 313.00,14.60              319.08,13.38 336.80,9.53 342.00,11.00              342.00,11.00 328.00,17.31 328.00,17.31              328.00,17.31 295.00,33.26 295.00,33.26              265.55,48.46 237.40,67.47 213.00,89.92              213.00,89.92 204.09,98.01 204.09,98.01              183.79,119.27 165.86,144.36 155.42,172.00              134.57,227.23 139.75,296.40 172.67,346.00              183.56,362.41 197.03,377.49 214.00,387.80              241.40,404.43 267.76,408.25 299.00,402.39              308.59,400.59 317.80,398.07 327.00,394.78              331.36,393.22 337.50,389.79 342.00,391.00 Z            M 279.00,365.00            C 257.39,365.00 242.36,365.09 222.00,355.69              152.59,323.67 148.88,227.70 178.26,167.00              190.64,141.41 205.38,120.10 227.00,101.29              253.73,78.03 277.33,68.54 311.00,60.13              363.25,47.07 419.97,49.99 471.00,67.00              495.59,75.19 511.96,82.85 534.00,96.58              541.60,101.31 553.61,109.09 559.00,116.00              559.00,116.00 528.00,104.42 528.00,104.42              528.00,104.42 487.00,92.65 487.00,92.65              469.93,88.74 442.24,84.03 425.00,84.00              425.00,84.00 404.00,83.01 404.00,83.01              404.00,83.01 395.00,84.04 395.00,84.04              395.00,84.04 386.00,84.04 386.00,84.04              355.34,87.09 324.75,92.81 296.00,104.20              253.55,121.03 220.09,160.27 203.40,202.00              197.59,216.52 192.02,238.38 192.00,254.00              192.00,254.00 192.00,267.00 192.00,267.00              192.03,284.40 198.30,304.41 207.70,319.00              217.54,334.28 233.30,347.37 250.00,354.57              250.00,354.57 279.00,365.00 279.00,365.00 Z            M 384.00,365.00            C 383.75,376.29 379.02,391.39 375.05,402.00              370.71,413.59 364.33,425.13 356.87,435.00              313.39,492.53 235.21,494.20 174.00,467.14              92.58,431.15 42.97,350.20 44.00,262.00              44.00,262.00 44.91,252.00 44.91,252.00              46.55,229.54 49.85,211.44 57.00,190.00              65.74,163.77 77.28,140.78 92.98,118.00              97.51,111.42 106.11,98.42 113.00,95.00              105.15,113.23 96.94,130.97 91.02,150.00              73.19,207.38 67.82,262.51 88.69,320.00              110.38,379.72 162.82,428.97 224.00,446.42              252.19,454.46 283.67,456.00 311.00,443.69              334.22,433.23 351.93,417.19 366.00,396.00              366.00,396.00 384.00,365.00 384.00,365.00 Z            M 268.00,329.00            C 259.67,323.71 250.34,313.78 244.21,306.00              237.68,297.70 233.31,289.77 229.40,280.00              204.96,218.89 242.70,155.74 297.00,126.31              376.90,83.00 474.69,99.82 543.00,157.44              576.08,185.34 601.21,222.43 618.28,262.00              627.72,283.88 636.16,311.48 640.08,335.00              641.27,342.16 643.98,358.34 643.00,365.00              643.00,365.00 633.40,341.00 633.40,341.00              633.40,341.00 615.22,302.00 615.22,302.00              583.39,241.66 538.16,185.86 474.00,158.43              448.59,147.56 427.41,142.79 400.00,140.91              400.00,140.91 389.00,140.04 389.00,140.04              389.00,140.04 381.00,141.04 381.00,141.04              381.00,141.04 373.00,141.04 373.00,141.04              342.93,144.04 313.29,154.56 289.00,172.63              270.80,186.17 254.94,204.27 247.34,226.00              242.63,239.49 241.84,247.89 242.00,262.00              242.15,274.27 248.49,294.18 254.31,305.00              254.31,305.00 268.00,329.00 268.00,329.00 Z            M 274.00,280.00            C 274.00,261.77 274.71,248.46 281.23,231.00              284.60,221.97 290.52,211.61 296.42,204.00              318.10,176.07 351.32,161.14 386.00,157.93              386.00,157.93 396.00,157.00 396.00,157.00              426.63,156.65 449.79,161.36 478.00,173.43              490.44,178.75 505.20,187.97 516.00,196.13              566.50,234.30 591.78,289.36 599.15,351.00              599.15,351.00 602.00,379.00 602.00,379.00              602.00,379.00 603.00,405.00 603.00,405.00              603.00,405.00 602.00,419.00 602.00,419.00              601.84,453.16 592.08,492.69 574.40,522.00              564.46,538.47 546.07,559.56 527.00,565.00              527.00,565.00 541.34,549.00 541.34,549.00              549.89,538.18 556.60,525.97 561.31,513.00              567.45,496.07 572.79,469.98 573.00,452.00              573.39,418.27 572.04,400.30 566.25,367.00              563.69,352.29 560.86,337.23 556.26,323.00              541.80,278.35 516.10,240.73 476.00,215.32              464.36,207.95 452.08,201.71 439.00,197.33              424.07,192.34 405.78,188.08 390.00,188.00              358.75,187.85 329.36,197.67 307.00,220.00              301.16,225.84 297.95,228.91 293.44,236.00              288.58,243.63 283.73,253.48 280.69,262.00              278.91,266.99 276.99,276.27 274.00,280.00 Z            M 310.00,268.00            C 315.80,257.13 328.85,246.24 339.00,239.34              398.29,199.06 473.87,225.73 514.77,279.00              567.06,347.11 565.27,446.47 518.92,517.00              493.59,555.55 457.82,582.77 418.00,604.86              390.19,620.29 359.79,631.18 329.00,638.87              329.00,638.87 306.00,643.88 306.00,643.88              301.96,644.43 298.92,645.50 295.00,643.88              313.23,636.71 330.76,627.65 348.00,618.31              427.65,575.13 507.00,511.04 514.09,414.00              514.09,414.00 515.00,402.00 515.00,402.00              515.02,388.21 514.28,374.57 511.55,361.00              502.11,314.09 473.08,268.85 428.00,249.58              414.58,243.84 406.48,241.92 392.00,240.91              388.86,240.69 387.29,240.08 384.00,240.32              368.16,241.51 353.44,244.28 339.00,251.26              339.00,251.26 310.00,268.00 310.00,268.00 Z            M 368.00,276.00            C 374.52,274.41 385.02,274.92 392.00,275.00              400.05,275.10 409.36,277.15 417.00,279.67              453.96,291.84 475.89,322.23 484.87,359.00              486.61,366.14 488.91,379.80 489.00,387.00              489.32,414.25 487.90,433.83 478.92,460.00              472.89,477.58 463.52,495.72 452.98,511.00              395.03,594.93 279.36,616.13 186.00,589.29              158.37,581.35 131.92,569.29 108.00,553.33              99.35,547.57 86.98,539.33 81.00,531.00              81.00,531.00 108.00,542.58 108.00,542.58              121.53,548.25 135.85,552.98 150.00,556.85              211.04,573.55 273.19,573.93 333.00,552.05              333.00,552.05 351.00,545.22 351.00,545.22              369.65,536.47 386.98,525.06 402.00,510.91              425.26,488.98 443.85,455.78 452.15,425.00              455.03,414.32 457.98,400.01 458.00,389.00              458.00,389.00 458.00,373.00 458.00,373.00              457.78,354.19 449.43,329.93 438.10,315.00              427.07,300.46 412.16,289.80 395.00,283.69              395.00,283.69 368.00,276.00 368.00,276.00 Z            M 17.00,308.00            C 20.67,312.25 24.90,325.99 27.42,332.00              27.42,332.00 49.28,376.00 49.28,376.00              79.14,427.79 123.36,472.46 180.00,493.94              199.55,501.35 220.16,506.84 241.00,508.96              241.00,508.96 249.00,508.96 249.00,508.96              249.00,508.96 262.00,510.00 262.00,510.00              262.00,510.00 272.00,509.09 272.00,509.09              315.71,506.08 355.14,490.24 384.83,457.00              392.92,447.94 399.18,436.99 404.23,426.00              410.28,412.84 414.31,393.50 413.99,379.00              413.37,351.88 404.42,332.20 394.00,308.00              398.87,310.41 401.84,314.75 405.11,319.00              411.73,327.60 416.45,335.28 421.24,345.00              449.07,401.44 428.91,468.45 381.00,507.00              364.38,520.37 348.10,529.58 328.00,536.69              247.53,565.17 154.52,539.53 94.00,480.96              94.00,480.96 85.83,472.00 85.83,472.00              57.94,441.01 38.81,407.11 27.29,367.00              22.50,350.31 17.05,325.21 17.00,308.00 Z" />
  <path
     style="fill:#ff9a5a;stroke-width:0.694839;fill-opacity:1"
     d="m 680.98641,376.07524 c -5.26864,-13.29413 -23.15838,-51.95266 -28.81407,-62.26526 -13.19342,-24.05695 -29.64923,-48.40288 -46.32175,-68.5318 -8.46211,-10.21639 -31.65888,-33.08514 -41.6413,-41.05243 -37.40226,-29.852 -78.56094,-47.68916 -121.59683,-52.69707 -14.15278,-1.6469 -28.39026,-2.66099 -30.37297,-2.16336 -1.0178,0.25545 -6.71651,0.72895 -12.6638,1.05222 -36.81828,2.00127 -75.9751,18.34073 -103.18591,43.05769 -19.36503,17.59023 -31.36261,37.40026 -36.59613,60.42639 -2.05761,9.05296 -2.53197,25.63606 -0.99671,34.8436 2.63403,15.79716 7.69678,29.02268 18.1044,47.29439 3.70283,6.50073 6.58053,11.97139 6.39488,12.15705 -0.56697,0.56697 -8.17592,-6.12337 -13.93875,-12.25597 -9.76126,-10.38756 -15.71623,-18.97222 -21.19801,-30.55894 -19.48606,-41.18733 -13.31111,-85.969 17.48352,-126.79303 5.99063,-7.9417 21.83236,-23.56156 30.14347,-29.72131 27.82084,-20.61931 59.886,-33.04054 99.05436,-38.37115 7.90711,-1.07612 26.09741,-1.55791 37.25743,-0.9868 70.27589,3.59634 136.40665,38.19754 182.46113,95.46805 35.22469,43.80326 60.039,101.43675 69.10721,160.50782 1.37106,8.93123 2.59467,21.89341 2.06553,21.88104 -0.15037,-0.003 -2.28594,-5.08451 -4.7457,-11.29113 z"
     id="path1595"
     transform="matrix(0.93750043,0,0,0.93750043,-3.4725736e-4,0)" />
  <path
     style="fill:#ff9a5a;fill-opacity:1;stroke-width:0.694839"
     d="m 255.70076,451.54811 c -30.56378,-2.83498 -63.02386,-19.51723 -87.20506,-44.8174 -35.00303,-36.62277 -54.31708,-84.69803 -57.04675,-141.99704 -0.98407,-20.65685 3.47609,-53.56684 10.25327,-75.65527 15.74915,-51.33029 47.42614,-92.280291 96.82466,-125.168819 24.76679,-16.489228 49.19958,-28.280027 79.0935,-38.169025 19.06534,-6.306869 47.54419,-12.790093 60.91656,-13.867686 l 5.21129,-0.419944 -3.47419,1.707128 c -1.91081,0.938921 -14.10523,6.817897 -27.09872,13.064393 -25.66312,12.337297 -42.60651,21.700602 -58.97676,32.591893 -27.8432,18.52437 -54.63957,41.61166 -70.30418,60.57287 -27.27409,33.01389 -42.19798,64.39157 -48.59067,102.16253 -10.97444,64.84207 7.59751,130.52723 48.91929,173.01743 26.03481,26.77096 60.76502,40.17111 96.61075,37.27584 17.10113,-1.38127 35.23834,-5.51407 51.72537,-11.78631 12.90903,-4.91104 12.50161,-3.5905 -1.85409,6.00956 -16.53951,11.06042 -26.57697,15.91307 -42.77113,20.67787 -12.73316,3.74647 -18.96829,4.62555 -34.51474,4.86617 -8.02539,0.12421 -15.99867,0.0953 -17.7184,-0.0642 z"
     id="path1666"
     transform="matrix(0.93750043,0,0,0.93750043,-3.4725736e-4,0)" />
  <path
     style="fill:#ff9a5a;fill-opacity:1;stroke-width:0.694839"
     d="m 263.69141,584.2943 c -25.24466,-1.93576 -44.30439,-5.6447 -65.66229,-12.77759 -29.79957,-9.95216 -57.17721,-24.98402 -81.64358,-44.8269 -9.89136,-8.02216 -15.2681,-13.19656 -24.545782,-23.62206 C 59.25358,466.45008 39.149701,428.93116 27.103173,382.25293 22.542107,364.57958 18.718545,342.22647 18.791363,333.66086 l 0.03071,-3.61232 1.465033,2.77936 c 0.805768,1.52864 2.961058,6.68782 4.789533,11.46484 3.970094,10.37215 25.2231,53.95446 30.755193,63.0679 35.360303,58.2517 83.212508,100.15581 137.333418,120.26265 25.35131,9.41844 46.85527,14.30955 67.74681,15.40911 6.49674,0.34194 13.21931,0.80636 14.93904,1.03205 2.98652,0.39194 20.62397,-1.02645 30.91847,-2.48645 29.28783,-4.15367 57.22591,-15.12003 78.53997,-30.82878 32.26364,-23.77874 50.71648,-53.99034 55.53779,-90.92832 3.232,-24.76163 -0.88182,-45.83255 -15.8869,-81.3725 -1.7605,-4.16979 -3.03708,-7.74527 -2.83685,-7.9455 1.14276,-1.14276 11.43441,11.57109 18.75587,23.17017 26.0551,41.27799 28.45551,90.23757 6.60899,134.79877 -8.11046,16.54321 -18.18162,30.41131 -31.03765,42.73917 -29.88015,28.65257 -69.06489,46.42544 -114.19581,51.79537 -8.60538,1.02391 -31.87263,1.80098 -38.56357,1.28792 z"
     id="path1668"
     transform="matrix(0.93750043,0,0,0.93750043,-3.4725736e-4,0)" />
  <path
     style="fill:#ff9a5a;fill-opacity:1;stroke-width:0.694839"
     d="m 251.87915,582.9487 c -20.07998,-2.42438 -36.34537,-5.99747 -53.71239,-11.79924 -36.69217,-12.25771 -71.55938,-33.4182 -96.72026,-58.69834 -39.93338,-40.12266 -65.545293,-88.1211 -77.384301,-145.02335 -3.56272,-17.12363 -5.685566,-33.40521 -4.5089,-34.58187 0.19258,-0.19258 1.393282,2.22601 2.668228,5.37464 9.788233,24.17321 30.878207,66.09468 40.500556,80.50474 12.926907,19.35883 23.496305,32.54803 38.006187,47.42666 35.82456,36.735 74.34908,59.04648 123.07829,71.28081 30.76288,7.72357 62.20141,8.65691 92.7864,2.75462 51.56117,-9.95029 94.0648,-40.67077 113.39544,-81.95919 8.05516,-17.20506 11.89401,-34.55086 11.9137,-53.83186 0.0187,-18.32554 -4.13458,-35.49821 -15.01584,-62.08618 -2.08848,-5.10312 -3.68737,-9.608 -3.55309,-10.01084 0.32736,-0.98209 6.58976,6.20706 12.03516,13.81622 12.80197,17.88889 21.36907,38.36277 25.11393,60.01789 1.59273,9.21016 1.56853,31.1985 -0.0447,40.64809 -12.25359,71.7746 -72.53349,124.29441 -155.57108,135.54376 -11.39209,1.54332 -42.35136,1.90758 -52.9873,0.62344 z"
     id="path1670"
     transform="matrix(0.93750043,0,0,0.93750043,-3.4725736e-4,0)" />
  <path
     style="fill:#ff9a5a;fill-opacity:1;stroke-width:0.694839"
     d="m 316.97948,687.10363 c -0.50016,-0.21905 3.25197,-2.19601 8.33807,-4.39324 11.17087,-4.8259 33.41878,-15.92383 48.34151,-24.11419 32.08325,-17.60894 60.19123,-36.39498 83.58345,-55.86322 10.07662,-8.38629 32.30077,-30.34226 39.3459,-38.87111 30.13744,-36.48441 46.42673,-72.69668 51.25952,-113.9536 3.37256,-28.79114 1.55393,-54.87797 -5.55503,-79.68271 -13.21384,-46.10603 -42.03201,-82.98063 -79.11709,-101.23517 -15.66456,-7.71063 -26.69709,-10.78374 -44.26204,-12.3292 -8.20677,-0.72207 -10.72131,-0.67342 -19.05368,0.36868 -10.93698,1.36785 -22.38579,4.09422 -30.68745,7.30777 -3.13116,1.21206 -12.48072,6.10104 -20.7768,10.8644 -8.29607,4.76336 -15.23013,8.51429 -15.40901,8.33541 -1.16056,-1.16056 13.49153,-16.49813 21.7285,-22.74503 15.84319,-12.01545 32.20912,-19.61379 50.91481,-23.63864 6.62351,-1.42516 9.2664,-1.59976 23.78038,-1.57107 15.08795,0.0298 16.99339,0.17577 25.07598,1.92062 37.56283,8.10903 71.05178,29.81979 95.05663,61.62487 22.11136,29.29632 35.17136,63.18632 39.76328,103.1836 1.10205,9.59924 1.10357,35.03371 0.003,45.51196 -7.1397,67.95777 -39.97097,124.21788 -97.71057,167.43813 -45.25035,33.87158 -94.26458,55.75755 -153.90685,68.72292 -13.44715,2.92322 -19.18583,3.78734 -20.71229,3.11882 z"
     id="path1672"
     transform="matrix(0.93750043,0,0,0.93750043,-3.4725736e-4,0)" />
  <path
     style="fill:#ef4765;fill-opacity:1;stroke-width:0.694839"
     d="m 564.9577,600.25956 c 0.60272,-0.71957 4.11508,-4.68714 7.80528,-8.81681 15.64322,-17.50626 25.35235,-36.84851 32.06641,-63.88183 5.74844,-23.14537 6.93314,-35.15116 6.42292,-65.08998 -0.50113,-29.40437 -2.39678,-47.15387 -8.53998,-79.96205 -5.71509,-30.52181 -11.37997,-48.43916 -22.51774,-71.221 -17.45438,-35.70215 -42.22065,-63.35686 -74.69919,-83.41118 -9.12397,-5.63372 -24.43858,-13.13268 -34.04613,-16.67104 -9.78701,-3.60445 -28.9552,-8.31675 -39.56326,-9.72622 -11.95146,-1.58795 -31.25502,-1.12342 -42.72713,1.02821 -17.11929,3.21077 -34.60427,10.5115 -47.96066,20.02562 -8.95598,6.37959 -22.36358,19.7987 -27.4075,27.43102 -6.08327,9.20503 -12.41393,22.58956 -16.35213,34.57228 -1.94679,5.92351 -3.87246,11.23902 -4.27926,11.81227 -1.15987,1.63444 -0.0806,-19.17139 1.45983,-28.14098 2.55427,-14.87345 6.82045,-26.463 14.46543,-39.29694 30.98638,-52.01813 102.07874,-73.86881 173.61532,-53.36174 25.61704,7.34351 49.54157,19.80649 71.78164,37.39312 9.27331,7.33299 28.09769,26.17729 34.73105,34.7678 24.60368,31.86291 40.38912,69.46795 47.54255,113.25877 2.3433,14.34487 5.08736,42.54771 5.6451,58.01906 0.63646,17.65522 -1.02211,46.58797 -3.54501,61.84067 -5.88818,35.59808 -18.85093,67.50507 -36.69773,90.32907 -4.68365,5.98986 -15.26068,16.52303 -20.92466,20.83789 -4.94688,3.76857 -12.48768,8.13988 -15.63388,9.06275 -1.64019,0.48112 -1.67596,0.43657 -0.64127,-0.79876 z"
     id="path3195"
     transform="matrix(0.93750043,0,0,0.93750043,-3.4725736e-4,0)" />
  <path
     style="fill:#ef4765;fill-opacity:1;stroke-width:0.694839"
     d="m 565.59897,600.26899 c 0,-0.23065 2.29963,-2.96658 5.1103,-6.07984 17.22285,-19.07712 26.72004,-37.25181 33.82041,-64.72181 5.6871,-22.00233 6.92874,-32.5921 6.92486,-59.06132 -0.004,-29.68482 -1.57552,-48.04484 -6.62992,-77.47455 -6.52942,-38.01814 -12.83618,-58.62399 -25.7327,-84.07552 -17.88874,-35.30377 -40.69066,-60.63197 -72.57198,-80.61243 -7.78656,-4.87994 -26.00421,-13.89819 -34.37682,-17.01749 -8.83541,-3.29172 -28.27149,-8.17731 -38.34253,-9.63804 -9.71355,-1.40888 -29.13763,-1.46487 -39.13202,-0.1128 -24.82438,3.35833 -47.88884,14.25702 -65.49566,30.94881 -15.64974,14.8364 -23.38855,27.55127 -32.56352,53.50187 l -3.3166,9.38072 -0.0348,-5.55871 c -0.20604,-32.93339 12.56913,-63.27297 35.79098,-84.99952 18.59089,-17.39378 43.27754,-29.13014 71.87313,-34.16942 10.96915,-1.93305 34.72739,-2.65763 46.98262,-1.43289 16.9616,1.69508 36.66259,6.52741 53.0742,13.01822 17.26882,6.82984 39.36245,19.73463 53.86703,31.46347 7.42593,6.00484 28.20211,26.8148 33.6802,33.73496 25.82867,32.62789 43.32339,76.4746 49.30955,123.58367 3.3467,26.33749 3.83983,34.07254 3.79371,59.50641 -0.0606,33.41724 -1.73917,48.79535 -7.93894,72.7326 -3.73032,14.40279 -8.1105,26.29179 -14.55537,39.50733 -7.67374,15.73538 -15.02319,26.42482 -25.7191,37.40722 -8.8808,9.11868 -13.42576,12.80058 -21.95005,17.78188 -4.71491,2.75524 -5.867,3.22401 -5.867,2.38718 z"
     id="path3197"
     transform="matrix(0.93750043,0,0,0.93750043,-3.4725736e-4,0)" />
  <path
     style="fill:#ef4765;fill-opacity:1;stroke-width:0.694839"
     d="m 268.27068,387.98523 c -11.21939,-1.30078 -23.89242,-5.18339 -34.64563,-10.61432 -19.13346,-9.66337 -36.4566,-27.21078 -46.34221,-46.94215 -8.71336,-17.39159 -13.79531,-37.61324 -14.83944,-59.04779 -2.1471,-44.07725 9.37675,-84.44522 35.22017,-123.37605 17.66189,-26.60609 44.5068,-51.058681 70.84358,-64.530277 24.02009,-12.286578 58.26245,-21.922693 91.84205,-25.845196 13.16707,-1.538073 40.34988,-2.06622 54.2613,-1.054267 55.47589,4.03546 106.04163,21.116005 151.41106,51.14497 8.18092,5.41477 19.16184,14.05452 18.58989,14.62647 -0.14297,0.14298 -7.28385,-2.35848 -15.86862,-5.55879 -17.89438,-6.67085 -54.5042,-17.426497 -69.79761,-20.505932 -13.37165,-2.692477 -31.07562,-5.343005 -41.66597,-6.237968 -8.15346,-0.689028 -35.58185,-1.864978 -36.692,-1.573114 -0.30821,0.08103 -6.24909,0.439376 -13.20195,0.796327 -35.29858,1.812183 -79.36463,11.574457 -106.85754,23.672927 -46.01345,20.24859 -85.67099,68.44533 -100.33067,121.93423 -4.57304,16.6857 -5.54816,24.36779 -5.51008,43.40873 0.0298,14.91751 0.22671,17.92615 1.59127,24.31937 6.13267,28.73251 19.40629,49.41927 42.11392,65.63397 8.21488,5.86595 14.99546,9.15508 30.23825,14.66803 7.06999,2.55704 13.47988,4.90134 14.2442,5.20955 1.84247,0.74299 -17.97983,0.63929 -24.60397,-0.12872 z"
     id="path3925"
     transform="matrix(0.93750043,0,0,0.93750043,-3.4725736e-4,0)" />
  <path
     style="fill:#ef4765;fill-opacity:1;stroke-width:0.694839"
     d="m 250.14205,515.12825 c -34.53216,-3.53776 -68.19262,-15.92503 -99.01456,-36.43802 -13.64291,-9.0798 -23.40457,-17.08119 -35.10355,-28.77351 C 79.256464,413.17013 56.187079,365.8967 49.338024,313.26496 c -2.762435,-21.22801 -2.450015,-39.3052 1.126918,-65.20544 4.604156,-33.33826 18.802521,-72.84924 37.092579,-103.22062 7.05221,-11.71048 18.955769,-29.07156 23.898779,-34.85586 4.26122,-4.98646 7.36117,-7.62786 7.36117,-6.27229 0,0.31683 -2.22099,5.72152 -4.93555,12.01042 -11.33969,26.27108 -17.206362,42.74083 -22.759844,63.89472 -14.254314,54.29641 -14.815374,101.05313 -1.758839,146.5752 10.644263,37.11162 29.480283,68.36963 58.042283,96.3201 37.4258,36.62449 84.5382,58.32385 131.32619,60.48713 30.78621,1.42343 58.07022,-7.76903 83.05392,-27.9823 14.14482,-11.44398 24.02428,-23.88435 37.67452,-47.44031 5.11941,-8.83449 9.43108,-15.93965 9.58148,-15.78925 0.45203,0.45203 -1.13334,9.39158 -2.91662,16.44622 -9.65688,38.20249 -30.74642,68.65666 -60.22549,86.96813 -22.14831,13.75783 -49.29403,20.86921 -78.72965,20.62484 -6.11693,-0.0508 -13.77945,-0.36461 -17.02782,-0.6974 z"
     id="path3927"
     transform="matrix(0.93750043,0,0,0.93750043,-3.4725736e-4,0)" />
  <path
     style="fill:#ef4765;fill-opacity:1;stroke-width:0.694839"
     d="m 256.3956,638.83503 c -37.95695,-3.29594 -76.22254,-14.05133 -109.78776,-30.85827 -20.85835,-10.44431 -47.172175,-27.9628 -56.24136,-37.44284 -1.316993,-1.37666 -2.087423,-2.50301 -1.712067,-2.50301 0.375355,0 6.924752,2.69467 14.554217,5.98816 36.48524,15.74996 67.42877,24.72232 102.61134,29.75311 16.84076,2.40807 28.1652,3.16971 47.12873,3.16971 38.76194,0 70.86308,-5.94789 108.67836,-20.13658 28.0274,-10.51616 49.75332,-24.32863 69.92047,-44.45262 24.69078,-24.63794 42.76848,-56.81651 51.73945,-92.097 4.59343,-18.06477 5.47582,-25.12816 5.46857,-43.77486 -0.007,-17.22281 -0.67404,-22.84548 -4.12325,-34.7405 -7.05896,-24.3437 -18.79757,-42.1027 -36.51101,-55.23642 -11.5172,-8.53948 -20.96769,-12.79842 -40.20161,-18.11718 -12.82893,-3.54758 -13.36445,-3.76293 -10.77001,-4.3309 4.38667,-0.96033 29.0463,-0.0754 35.04021,1.25744 22.78439,5.06649 40.82426,15.25704 55.98456,31.62513 16.67655,18.00513 27.38283,42.89979 31.9671,74.33114 1.62159,11.11819 1.03797,40.46902 -1.08278,54.45379 -6.38889,42.13019 -28.69674,86.06714 -59.17069,116.5411 -37.36553,37.36553 -89.81265,60.53796 -149.94635,66.25 -12.27221,1.16572 -41.77891,1.34239 -53.54612,0.3206 z"
     id="path3929"
     transform="matrix(0.93750043,0,0,0.93750043,-3.4725736e-4,0)" />
</svg>
