<?xml version="1.0" encoding="utf-8"?>
<svg version="1.1" xmlns="http://www.w3.org/2000/svg" xmlns:xlink="http://www.w3.org/1999/xlink" x="0px" y="0px"
	 width="48.795px" height="48.795px" viewBox="0 0 48.795 48.795" enable-background="new 0 0 48.795 48.795"
	 xml:space="preserve">
<g>
	<path d="M24.424,48.35c-0.171,0-0.343-0.033-0.503-0.098L7.709,41.745c-0.333-0.133-0.599-0.393-0.739-0.724L0.109,24.955
		c-0.141-0.331-0.146-0.701-0.01-1.036L6.606,7.708C6.74,7.375,7,7.109,7.33,6.97l16.065-6.861c0.331-0.141,0.703-0.144,1.036-0.01
		l16.211,6.508c0.333,0.133,0.599,0.393,0.739,0.724l6.861,16.063c0.141,0.331,0.146,0.701,0.01,1.036L41.746,40.64
		c-0.133,0.333-0.393,0.599-0.724,0.739L24.958,48.24C24.786,48.315,24.605,48.35,24.424,48.35z M9.238,39.446l15.171,6.09
		l15.034-6.42l6.092-15.171l-6.42-15.033L23.943,2.819L8.905,9.242l-6.09,15.171L9.238,39.446z"/>
	<g>
		<path d="M27.664,23.921l-6.497,7.155h10.239v3.084h-14.46v-3.084l6.437-7.125l-6.407-6.677v-3.083h14.43v3.083H21.317
			L27.664,23.921z"/>
	</g>
</g>
</svg>